<svg width="90" height="90" viewBox="0 0 90 90" fill="none" xmlns="http://www.w3.org/2000/svg">
<g filter="url(#filter0_dd_2124_2121)">
<rect x="5.5" y="1.5" width="79" height="79" rx="39.5" fill="#414243"/>
<path d="M17.1033 22.696L23.1513 22.792H37.0713V21.784C37.0713 21.496 37.2953 21.352 37.7433 21.352C38.2233 21.352 38.4633 21.496 38.4633 21.784C38.4633 24.984 38.6233 27.416 38.9433 29.08C39.0073 29.336 38.7833 29.464 38.2712 29.464C37.7593 29.464 37.4713 29.336 37.4073 29.08C36.8953 27.064 36.2873 25.896 35.5833 25.576C33.8873 24.936 31.1673 24.6 27.4233 24.568C26.7833 24.6 26.3513 24.776 26.1273 25.096C25.9353 25.416 25.8393 25.976 25.8393 26.776V38.104C27.8233 38.072 29.7593 37.976 31.6473 37.816C33.5353 37.656 34.5593 37.528 34.7193 37.432L35.1993 34.6C35.2313 34.376 35.4233 34.264 35.7753 34.264C36.4473 34.264 36.7513 34.408 36.6873 34.696C36.5273 35.944 36.4473 37.352 36.4473 38.92C36.4473 40.488 36.5273 41.896 36.6873 43.144C36.7513 43.4 36.5113 43.528 35.9673 43.528C35.4553 43.528 35.1993 43.432 35.1993 43.24L34.6713 40.36C34.4793 40.264 33.4553 40.136 31.5993 39.976C29.7753 39.784 27.8553 39.672 25.8393 39.64V48.856C25.8393 51.672 26.1753 53.08 26.8473 53.08H29.2953C34.2553 53.016 37.6473 52.344 39.4713 51.064L39.8073 48.424C39.8713 48.168 40.1433 48.04 40.6233 48.04C41.1353 48.04 41.3913 48.136 41.3913 48.328L40.9593 56.056C40.9593 56.28 40.7033 56.392 40.1913 56.392C39.7113 56.392 39.4713 56.28 39.4713 56.056V55H27.6153L16.8633 55.096C16.6073 55.096 16.4793 54.824 16.4793 54.28C16.4793 53.736 16.6073 53.464 16.8633 53.464H18.9273C19.7273 53.464 20.2553 53.32 20.5113 53.032C20.7673 52.712 20.8953 52.12 20.8953 51.256V28.504C20.8953 25.688 20.5593 24.28 19.8873 24.28H17.1033C16.8473 24.28 16.7193 24.024 16.7193 23.512C16.7193 22.968 16.8473 22.696 17.1033 22.696ZM69.0996 54.952L63.0036 55.096C62.7156 55.096 62.5716 54.824 62.5716 54.28C62.5716 53.736 62.7156 53.464 63.0036 53.464H65.7396C66.4116 53.464 66.7476 53.192 66.7476 52.648C66.7476 52.424 66.1396 50.52 64.9236 46.936C63.7076 43.32 62.9556 41.064 62.6676 40.168H53.9796C51.7076 47.4 50.5716 51.576 50.5716 52.696C50.5716 53.176 50.6676 53.416 50.8596 53.416H54.3156C54.6676 53.416 54.8436 53.688 54.8436 54.232C54.8436 54.744 54.6356 55 54.2196 55L48.0276 54.952L42.6996 55.096C42.4116 55.096 42.2676 54.824 42.2676 54.28C42.2676 53.736 42.4116 53.464 42.6996 53.464H45.0996C45.8036 53.464 46.3316 53.112 46.6836 52.408C48.0276 49.496 49.7236 45.16 51.7716 39.4C53.8516 33.64 55.2596 29.832 55.9956 27.976C56.7636 26.088 57.1476 25.048 57.1476 24.856C57.1476 24.632 57.0836 24.392 56.9556 24.136C56.8276 23.88 56.7636 23.72 56.7636 23.656C56.7636 23.4 56.9876 23.272 57.4356 23.272C57.9156 23.272 58.3476 23.16 58.7316 22.936C59.1476 22.712 59.4196 22.456 59.5476 22.168C59.8996 21.464 60.2196 21.112 60.5076 21.112C60.6356 21.112 60.8596 21.592 61.1796 22.552L70.8276 48.616C72.0436 51.816 72.8916 53.416 73.3716 53.416H75.0996C75.4196 53.416 75.5796 53.688 75.5796 54.232C75.5796 54.744 75.4516 55 75.1956 55L69.0996 54.952ZM58.3476 27.688C57.3556 30.248 56.1076 33.768 54.6036 38.248H61.9956C59.8516 31.752 58.6996 28.232 58.5396 27.688H58.3476Z" fill="#FFFDFD"/>
<rect x="5.5" y="1.5" width="79" height="79" rx="39.5" stroke="black"/>
</g>
<defs>
<filter id="filter0_dd_2124_2121" x="0" y="0" width="90" height="90" filterUnits="userSpaceOnUse" color-interpolation-filters="sRGB">
<feFlood flood-opacity="0" result="BackgroundImageFix"/>
<feColorMatrix in="SourceAlpha" type="matrix" values="0 0 0 0 0 0 0 0 0 0 0 0 0 0 0 0 0 0 127 0" result="hardAlpha"/>
<feMorphology radius="1" operator="erode" in="SourceAlpha" result="effect1_dropShadow_2124_2121"/>
<feOffset dy="2"/>
<feGaussianBlur stdDeviation="2"/>
<feColorMatrix type="matrix" values="0 0 0 0 0 0 0 0 0 0 0 0 0 0 0 0 0 0 0.06 0"/>
<feBlend mode="normal" in2="BackgroundImageFix" result="effect1_dropShadow_2124_2121"/>
<feColorMatrix in="SourceAlpha" type="matrix" values="0 0 0 0 0 0 0 0 0 0 0 0 0 0 0 0 0 0 127 0" result="hardAlpha"/>
<feMorphology radius="1" operator="erode" in="SourceAlpha" result="effect2_dropShadow_2124_2121"/>
<feOffset dy="4"/>
<feGaussianBlur stdDeviation="3"/>
<feColorMatrix type="matrix" values="0 0 0 0 0 0 0 0 0 0 0 0 0 0 0 0 0 0 0.1 0"/>
<feBlend mode="normal" in2="effect1_dropShadow_2124_2121" result="effect2_dropShadow_2124_2121"/>
<feBlend mode="normal" in="SourceGraphic" in2="effect2_dropShadow_2124_2121" result="shape"/>
</filter>
</defs>
</svg>
