<svg width="88" height="88" viewBox="0 0 88 88" fill="none" xmlns="http://www.w3.org/2000/svg">
<g filter="url(#filter0_d_2124_2121)">
<rect x="4.5" y="0.5" width="79" height="79" rx="39.5" fill="#414243"/>
<path d="M27.6498 36.3L28.0698 38.5C28.0698 38.6067 27.9898 38.66 27.8298 38.66C27.6698 38.66 27.5698 38.6067 27.5298 38.5C27.3564 38.0067 27.0831 37.6 26.7098 37.28C26.3364 36.96 25.9298 36.8 25.4898 36.8C25.0631 36.7867 24.6831 36.9067 24.3498 37.16C24.0298 37.4133 23.8698 37.7267 23.8698 38.1C23.8698 38.46 23.9764 38.7933 24.1898 39.1C24.4164 39.3933 24.6898 39.6467 25.0098 39.86C25.3298 40.0733 25.6831 40.32 26.0698 40.6C26.4564 40.8667 26.8098 41.1333 27.1298 41.4C27.4498 41.6667 27.7164 42.0133 27.9298 42.44C28.1564 42.8667 28.2698 43.3267 28.2698 43.82C28.2698 44.5933 27.9298 45.1933 27.2498 45.62C26.5698 46.0467 25.8298 46.26 25.0298 46.26C24.2431 46.26 23.5164 46.1067 22.8498 45.8C22.8498 45.96 22.8364 46.06 22.8098 46.1C22.7964 46.14 22.7298 46.1667 22.6098 46.18H22.5298C22.4231 46.18 22.3631 46.1267 22.3498 46.02C22.3231 45.7 22.2698 45.26 22.1898 44.7C22.1098 44.14 22.0498 43.6867 22.0098 43.34C22.0098 43.2067 22.0898 43.14 22.2498 43.14C22.4231 43.14 22.5164 43.1733 22.5298 43.24C22.7164 43.8933 23.0431 44.46 23.5098 44.94C23.9764 45.4067 24.4631 45.64 24.9698 45.64C25.4764 45.64 25.8964 45.52 26.2298 45.28C26.5631 45.0267 26.7298 44.68 26.7298 44.24C26.7298 43.8 26.5764 43.4 26.2698 43.04C25.9764 42.6667 25.6164 42.3333 25.1898 42.04C24.7631 41.7467 24.3364 41.4533 23.9098 41.16C23.4831 40.8533 23.1164 40.48 22.8098 40.04C22.5164 39.6 22.3698 39.12 22.3698 38.6C22.3698 37.8533 22.6831 37.26 23.3098 36.82C23.9498 36.38 24.7031 36.16 25.5698 36.16C26.0631 36.16 26.5898 36.2533 27.1498 36.44C27.1231 36.36 27.1098 36.2667 27.1098 36.16C27.1098 36.04 27.1698 35.98 27.2898 35.98C27.4231 35.98 27.5098 36 27.5498 36.04C27.5898 36.0667 27.6231 36.1533 27.6498 36.3ZM36.5376 36.34L38.1176 36.38C38.2642 36.38 38.3909 36.38 38.4976 36.38L40.5776 36.34C40.6709 36.34 40.7176 36.44 40.7176 36.64C40.7176 36.8267 40.6642 36.92 40.5576 36.92H39.6376C39.4642 36.92 39.3776 37.0267 39.3776 37.24V43.86C39.3776 44.8733 39.5109 45.38 39.7776 45.38H40.7776C40.8842 45.38 40.9376 45.4867 40.9376 45.7C40.9376 45.9 40.8976 46 40.8176 46L38.4976 45.98L36.4976 46.04C36.4042 46.04 36.3576 45.94 36.3576 45.74C36.3576 45.54 36.3976 45.44 36.4776 45.44H37.3776C37.5242 45.44 37.6109 45.4133 37.6376 45.36C37.6642 45.2933 37.6776 45.1267 37.6776 44.86V41.6H32.8376V43.86C32.8376 44.8733 32.9709 45.38 33.2376 45.38H34.2376C34.3442 45.38 34.3976 45.4867 34.3976 45.7C34.3976 45.9 34.3576 46 34.2776 46L31.9576 45.98L29.9576 46.04C29.8642 46.04 29.8176 45.94 29.8176 45.74C29.8176 45.54 29.8576 45.44 29.9376 45.44H30.8376C30.9842 45.44 31.0709 45.4133 31.0976 45.36C31.1242 45.2933 31.1376 45.1267 31.1376 44.86V38.56C31.1376 37.4933 31.0042 36.96 30.7376 36.96H30.0176C29.8576 36.96 29.7776 36.86 29.7776 36.66C29.7776 36.4467 29.8509 36.34 29.9976 36.34L31.5776 36.38C31.7242 36.38 31.8509 36.38 31.9576 36.38L34.0376 36.34C34.1309 36.34 34.1776 36.44 34.1776 36.64C34.1776 36.8267 34.1242 36.92 34.0176 36.92H33.0976C32.9242 36.92 32.8376 37.0267 32.8376 37.24V40.84H37.6776V38.56C37.6776 37.4933 37.5442 36.96 37.2776 36.96H36.5576C36.3976 36.96 36.3176 36.86 36.3176 36.66C36.3176 36.4467 36.3909 36.34 36.5376 36.34ZM42.6934 46L41.1134 46.04C41.02 46.04 40.9734 45.9533 40.9734 45.78C40.9734 45.6067 41.02 45.52 41.1134 45.52H41.7534C41.9 45.52 42.0067 45.46 42.0734 45.34C42.38 44.8333 42.9934 43.4867 43.9134 41.3C44.8334 39.1 45.4934 37.4333 45.8934 36.3C45.9467 36.18 46.0734 36.12 46.2734 36.12C46.4867 36.12 46.62 36.1867 46.6734 36.32C46.8334 36.9867 47.3 38.2467 48.0734 40.1C48.86 41.9533 49.5467 43.5 50.1334 44.74C50.2934 45.06 50.44 45.2667 50.5734 45.36C50.7067 45.4533 50.9134 45.5 51.1934 45.5C51.2734 45.5 51.3134 45.5933 51.3134 45.78C51.3134 45.9533 51.28 46.04 51.2134 46.04L49.2934 46L47.1334 46.04C47.0534 46.04 47.0134 45.9533 47.0134 45.78C47.0134 45.6067 47.0534 45.52 47.1334 45.52H48.0934C48.24 45.52 48.3134 45.46 48.3134 45.34C48.3134 45.3267 47.94 44.3 47.1934 42.26H44.4134C43.76 43.8733 43.4334 44.82 43.4334 45.1C43.4334 45.3667 43.5134 45.5 43.6734 45.5H44.4934C44.6 45.5 44.6534 45.5933 44.6534 45.78C44.6534 45.9533 44.6134 46.04 44.5334 46.04L42.6934 46ZM46.9334 41.58C46.8934 41.46 46.5467 40.4467 45.8934 38.54H45.8334C45.5134 39.46 45.1334 40.4733 44.6934 41.58H46.9334ZM61.6023 36.4L64.2223 36.34C64.3289 36.34 64.3823 36.44 64.3823 36.64C64.3823 36.8267 64.3289 36.92 64.2223 36.92H63.7223C63.4289 36.92 63.2823 37.1667 63.2823 37.66C63.2823 37.8733 63.3756 38.9267 63.5623 40.82C63.7623 42.7133 63.8889 43.9467 63.9423 44.52C64.0089 45.0933 64.1289 45.38 64.3023 45.38H65.1823C65.3023 45.38 65.3623 45.4867 65.3623 45.7C65.3623 45.9 65.3089 46 65.2023 46L63.2423 45.98L61.2223 46.04C61.1289 46.04 61.0823 45.94 61.0823 45.74C61.0823 45.54 61.1223 45.44 61.2023 45.44H61.8223C62.1823 45.44 62.3489 45.2867 62.3223 44.98C62.0556 41.2467 61.9089 39.1333 61.8823 38.64H61.8023C60.5623 41.2533 59.5356 43.62 58.7223 45.74C58.6689 45.86 58.5356 45.92 58.3223 45.92C58.1223 45.92 57.9956 45.8533 57.9423 45.72C57.5823 44.7867 56.6089 42.3733 55.0223 38.48H54.9623C54.7623 41.24 54.6623 42.8733 54.6623 43.38C54.6623 43.8867 54.6623 44.16 54.6623 44.2C54.6623 44.9867 54.7823 45.38 55.0223 45.38H55.6423C55.7756 45.38 55.8423 45.4867 55.8423 45.7C55.8423 45.9 55.7756 46 55.6423 46L54.0423 45.98L52.1223 46.04C52.0423 46.04 52.0023 45.94 52.0023 45.74C52.0023 45.54 52.0489 45.44 52.1423 45.44H52.6223C52.9423 45.44 53.1356 45.4067 53.2023 45.34C53.2823 45.26 53.3356 45.16 53.3623 45.04C53.4556 44.4933 53.5956 43.3067 53.7823 41.48C53.9823 39.6533 54.0823 38.5333 54.0823 38.12C54.0956 37.6933 54.0689 37.3933 54.0023 37.22C53.9489 37.0467 53.8423 36.96 53.6823 36.96H53.1223C53.0423 36.96 53.0023 36.86 53.0023 36.66C53.0023 36.4467 53.0423 36.34 53.1223 36.34L55.0423 36.4H55.9823C56.1023 36.7467 56.9823 39.16 58.6223 43.64H58.7023C59.6356 41.64 60.6023 39.2267 61.6023 36.4Z" fill="#FFFDFD"/>
<rect x="4.5" y="0.5" width="79" height="79" rx="39.5" stroke="black"/>
</g>
<defs>
<filter id="filter0_d_2124_2121" x="0" y="0" width="88" height="88" filterUnits="userSpaceOnUse" color-interpolation-filters="sRGB">
<feFlood flood-opacity="0" result="BackgroundImageFix"/>
<feColorMatrix in="SourceAlpha" type="matrix" values="0 0 0 0 0 0 0 0 0 0 0 0 0 0 0 0 0 0 127 0" result="hardAlpha"/>
<feOffset dy="4"/>
<feGaussianBlur stdDeviation="2"/>
<feComposite in2="hardAlpha" operator="out"/>
<feColorMatrix type="matrix" values="0 0 0 0 0 0 0 0 0 0 0 0 0 0 0 0 0 0 0.25 0"/>
<feBlend mode="normal" in2="BackgroundImageFix" result="effect1_dropShadow_2124_2121"/>
<feBlend mode="normal" in="SourceGraphic" in2="effect1_dropShadow_2124_2121" result="shape"/>
</filter>
</defs>
</svg>
